# 3ds Max Wavefront OBJ Exporter v0.97b - (c)2007 guruware
# File Created: 27.07.2016 16:42:58

mtllib Stone1_5.mtl

#
# object Stone1_5
#

v  2.5016 14.7247 -1.6411
v  8.7871 15.1852 -0.2257
v  2.3162 14.4629 -5.2660
v  14.5163 15.2810 0.0111
v  9.2103 14.8693 -4.3793
v  3.7289 13.5712 -8.9230
v  17.6664 13.0879 -0.6020
v  15.6483 13.5513 -4.2350
v  10.6483 12.5794 -8.3260
v  5.8832 11.8447 -11.7405
v  18.7735 8.8629 -0.3842
v  19.2574 9.0121 -4.4579
v  16.8471 8.9583 -8.3415
v  12.4920 8.3411 -11.5450
v  6.9028 7.6725 -13.1761
v  -3.3253 15.2896 -3.8499
v  -2.6172 13.1910 -8.0272
v  -7.6028 14.2966 -4.5725
v  -0.7338 12.0806 -11.0972
v  -6.7070 10.9098 -8.1535
v  -11.1098 10.7584 -6.6363
v  1.0133 9.7191 -12.4815
v  -4.5718 8.2257 -11.5732
v  -9.4005 7.3289 -10.4490
v  -13.4846 6.9346 -8.0365
v  -2.0139 15.3171 0.8355
v  -6.4620 15.3053 -0.2541
v  -8.5537 13.9905 4.4416
v  -11.5854 12.3821 -2.8604
v  -12.8750 11.6277 1.4872
v  -13.2912 10.9680 6.0203
v  -16.1701 8.1132 -4.4268
v  -18.3202 8.3693 -0.5199
v  -17.8523 7.6786 3.5444
v  -14.7068 8.2213 7.2992
v  3.7574 13.9505 2.3151
v  -2.5412 13.0603 4.3797
v  3.8653 13.3590 5.6621
v  -6.9450 10.8423 8.6865
v  -0.1282 10.4593 8.4298
v  6.1070 10.8914 8.7384
v  -10.4060 7.8595 9.7888
v  -4.8850 7.9422 12.0260
v  0.9277 7.1860 12.6828
v  6.5638 7.1069 11.6375
v  9.3384 14.7330 3.2885
v  9.5786 13.4699 6.4293
v  13.5378 13.2052 3.4857
v  11.5217 9.3824 8.9339
v  15.2934 9.0012 6.2436
v  17.5767 8.6735 3.1232
v  20.6928 4.6247 1.4864
v  21.0207 4.4891 -3.1990
v  22.4531 0.0000 2.4838
v  20.7891 1.3284 -1.9263
v  21.3727 0.0000 -6.2507
v  20.5781 0.0000 -2.2700
v  11.8630 3.2711 -14.1934
v  4.4230 4.1351 -14.0736
v  15.6211 0.0000 -14.2166
v  10.0336 0.0000 -14.3635
v  3.3204 0.0000 -13.8758
v  -11.4016 3.7473 -11.0745
v  -16.4981 3.3670 -7.1873
v  -9.1194 0.0000 -12.7189
v  -13.8347 0.0000 -9.0953
v  -19.5528 0.0000 -5.6511
v  -16.7621 4.7276 5.4693
v  -13.2976 4.7925 9.1632
v  -18.6610 0.4494 3.4262
v  -15.8634 1.7580 8.0498
v  -12.0234 0.0000 10.6843
v  -18.4691 0.0000 3.7554
v  -16.3125 0.0000 7.3424
v  -15.3375 0.0000 8.6622
v  5.0977 2.8747 13.9864
v  11.0218 4.6163 10.9708
v  1.5868 0.0000 15.0486
v  8.3482 0.0214 13.3414
v  13.8019 0.0000 9.2055
v  18.0196 3.9614 -12.0562
v  20.9280 3.9198 -7.6928
v  -3.7976 0.0000 -15.0486
v  -7.5278 3.4561 -13.8836
v  -2.1914 5.3810 -13.7634
v  -20.8596 4.2764 0.9715
v  -22.4531 0.6684 -1.3325
v  -20.5038 4.8030 -3.3762
v  -5.2330 0.0000 12.5794
v  -1.4728 4.1823 14.0840
v  -8.2248 3.8269 11.2768
v  16.2309 4.3158 7.8415
v  20.6117 3.6417 5.1702
v  21.1324 0.0000 -11.0581
v  -22.2013 0.0000 -0.9035
v  19.3395 0.0000 5.9410
# 96 vertices

vn 0.0450 0.9986 0.0276
vn -0.0663 0.9966 0.0480
vn -0.0087 0.9785 -0.2060
vn 0.3528 0.9238 0.1491
vn 0.0746 0.9607 -0.2673
vn 0.0060 0.9184 -0.3956
vn 0.7767 0.6114 0.1513
vn 0.4727 0.7783 -0.4132
vn 0.2832 0.7820 -0.5553
vn 0.1253 0.6527 -0.7472
vn 0.9117 0.3574 0.2025
vn 0.8566 0.4779 -0.1945
vn 0.5620 0.6019 -0.5673
vn 0.3180 0.5442 -0.7763
vn 0.0854 0.3210 -0.9432
vn -0.0311 0.9698 -0.2420
vn -0.2105 0.8447 -0.4921
vn -0.3432 0.8540 -0.3909
vn -0.2184 0.6800 -0.7000
vn -0.3258 0.6501 -0.6865
vn -0.4505 0.6758 -0.5834
vn -0.0974 0.3712 -0.9234
vn -0.2968 0.5294 -0.7948
vn -0.3888 0.5422 -0.7449
vn -0.5645 0.4557 -0.6882
vn 0.0758 0.9661 0.2468
vn -0.2396 0.9703 0.0335
vn -0.2318 0.8999 0.3694
vn -0.5289 0.8247 -0.2001
vn -0.5308 0.8462 0.0479
vn -0.5033 0.7431 0.4411
vn -0.5920 0.6206 -0.5142
vn -0.6895 0.7221 -0.0570
vn -0.7527 0.5069 0.4201
vn -0.6218 0.3709 0.6898
vn -0.0597 0.9738 0.2195
vn 0.0463 0.8503 0.5243
vn -0.1146 0.8876 0.4461
vn -0.1085 0.7470 0.6559
vn -0.0350 0.7967 0.6033
vn 0.0234 0.6826 0.7304
vn -0.3669 0.3918 0.8437
vn -0.1890 0.5105 0.8388
vn 0.0477 0.5816 0.8121
vn 0.2257 0.4848 0.8450
vn 0.0325 0.9573 0.2873
vn 0.1852 0.7856 0.5904
vn 0.4738 0.6877 0.5501
vn 0.3880 0.4942 0.7779
vn 0.6000 0.5174 0.6101
vn 0.7526 0.5184 0.4062
vn 0.9168 0.3927 0.0726
vn 0.9782 0.2034 0.0410
vn 0.9760 0.1838 0.1167
vn 0.9981 -0.0081 -0.0608
vn 0.9988 0.0443 0.0192
vn 0.9884 -0.1458 -0.0432
vn 0.1288 0.2443 -0.9611
vn 0.0063 0.1387 -0.9903
vn 0.2880 0.2157 -0.9330
vn -0.0101 0.0332 -0.9994
vn 0.0644 -0.0648 -0.9958
vn -0.5755 0.1978 -0.7935
vn -0.5903 0.2374 -0.7715
vn -0.5336 -0.0496 -0.8443
vn -0.5843 0.0004 -0.8116
vn -0.6839 0.1173 -0.7201
vn -0.7685 0.1446 0.6233
vn -0.5205 0.1973 0.8307
vn -0.7980 0.0620 0.5995
vn -0.7253 0.1467 0.6726
vn -0.3949 0.1538 0.9057
vn -0.8363 0.0428 0.5466
vn -0.8390 -0.0046 0.5441
vn -0.6342 0.0782 0.7692
vn 0.2283 0.2597 0.9383
vn 0.4621 0.2180 0.8596
vn -0.0167 0.1392 0.9901
vn 0.4232 0.1451 0.8943
vn 0.5402 0.0067 0.8415
vn 0.5272 0.4222 -0.7374
vn 0.9053 0.3375 -0.2577
vn -0.0975 0.1100 -0.9891
vn -0.3622 0.2338 -0.9023
vn -0.0959 0.3474 -0.9328
vn -0.8866 0.2861 0.3633
vn -0.9955 -0.0822 -0.0461
vn -0.7924 0.4332 -0.4294
vn -0.3417 0.0307 0.9393
vn -0.1677 0.2165 0.9618
vn -0.3459 0.1272 0.9296
vn 0.5306 0.1757 0.8292
vn 0.7852 0.2774 0.5536
vn 0.8094 0.2802 -0.5161
vn -0.9395 -0.1594 0.3032
vn 0.6068 -0.0492 0.7934
# 96 vertex normals

vt 0.8138 0.8249 0.0000
vt 0.7750 0.8286 0.0000
vt 0.8210 0.8033 0.0000
vt 0.7429 0.8242 0.0000
vt 0.7792 0.8047 0.0000
vt 0.8162 0.7806 0.0000
vt 0.7268 0.8174 0.0000
vt 0.7408 0.7994 0.0000
vt 0.7727 0.7772 0.0000
vt 0.8051 0.7612 0.0000
vt 0.7043 0.8176 0.0000
vt 0.7084 0.7893 0.0000
vt 0.7285 0.7656 0.0000
vt 0.7600 0.7458 0.0000
vt 0.7997 0.7357 0.0000
vt 0.8519 0.8184 0.0000
vt 0.8546 0.7901 0.0000
vt 0.8766 0.8204 0.0000
vt 0.8457 0.7706 0.0000
vt 0.8834 0.7904 0.0000
vt 0.9062 0.8076 0.0000
vt 0.8382 0.7539 0.0000
vt 0.8773 0.7599 0.0000
vt 0.9092 0.7728 0.0000
vt 0.9324 0.7959 0.0000
vt 0.8374 0.8445 0.0000
vt 0.8624 0.8435 0.0000
vt 0.8744 0.8721 0.0000
vt 0.9001 0.8326 0.0000
vt 0.9055 0.8597 0.0000
vt 0.9032 0.8875 0.0000
vt 0.9393 0.8268 0.0000
vt 0.9447 0.8557 0.0000
vt 0.9398 0.8819 0.0000
vt 0.9140 0.9014 0.0000
vt 0.8027 0.8496 0.0000
vt 0.8388 0.8701 0.0000
vt 0.7996 0.8699 0.0000
vt 0.8626 0.9030 0.0000
vt 0.8196 0.8981 0.0000
vt 0.7804 0.8904 0.0000
vt 0.8863 0.9192 0.0000
vt 0.8476 0.9283 0.0000
vt 0.8078 0.9304 0.0000
vt 0.7700 0.9181 0.0000
vt 0.7695 0.8480 0.0000
vt 0.7655 0.8654 0.0000
vt 0.7437 0.8470 0.0000
vt 0.7441 0.8866 0.0000
vt 0.7199 0.8668 0.0000
vt 0.7062 0.8438 0.0000
vt 0.6751 0.8285 0.0000
vt 0.6780 0.7927 0.0000
vt 0.6444 0.8384 0.0000
vt 0.6560 0.8007 0.0000
vt 0.6577 0.7633 0.0000
vt 0.6478 0.7968 0.0000
vt 0.7631 0.7099 0.0000
vt 0.8204 0.7142 0.0000
vt 0.7283 0.6967 0.0000
vt 0.7741 0.6879 0.0000
vt 0.8287 0.6883 0.0000
vt 0.9340 0.7629 0.0000
vt 0.9635 0.8009 0.0000
vt 0.9336 0.7287 0.0000
vt 0.9689 0.7678 0.0000
vt 0.9945 0.8195 0.0000
vt 0.9419 0.9048 0.0000
vt 0.9127 0.9274 0.0000
vt 0.9760 0.9041 0.0000
vt 0.9417 0.9313 0.0000
vt 0.9144 0.9608 0.0000
vt 0.9764 0.9071 0.0000
vt 0.9552 0.9336 0.0000
vt 0.9432 0.9442 0.0000
vt 0.7729 0.9508 0.0000
vt 0.7342 0.9176 0.0000
vt 0.7955 0.9767 0.0000
vt 0.7415 0.9573 0.0000
vt 0.6944 0.9239 0.0000
vt 0.7167 0.7293 0.0000
vt 0.6872 0.7580 0.0000
vt 0.8873 0.7022 0.0000
vt 0.9076 0.7364 0.0000
vt 0.8667 0.7331 0.0000
vt 0.9694 0.8720 0.0000
vt 0.9953 0.8616 0.0000
vt 0.9700 0.8414 0.0000
vt 0.8563 0.9773 0.0000
vt 0.8227 0.9528 0.0000
vt 0.8766 0.9483 0.0000
vt 0.6982 0.8885 0.0000
vt 0.6719 0.8586 0.0000
vt 0.6808 0.7236 0.0000
vt 0.9977 0.8649 0.0000
vt 0.6587 0.8811 0.0000
# 96 texture coords

g Stone1_5
usemtl wire_177148027
s 1
f 1/1/1 2/2/2 3/3/3 
f 2/2/2 4/4/4 5/5/5 
f 2/2/2 5/5/5 3/3/3 
f 3/3/3 5/5/5 6/6/6 
f 4/4/4 7/7/7 8/8/8 
f 4/4/4 8/8/8 5/5/5 
f 5/5/5 8/8/8 9/9/9 
f 5/5/5 9/9/9 6/6/6 
f 6/6/6 9/9/9 10/10/10 
f 7/7/7 11/11/11 12/12/12 
f 7/7/7 12/12/12 8/8/8 
f 8/8/8 12/12/12 13/13/13 
f 8/8/8 13/13/13 9/9/9 
f 9/9/9 13/13/13 14/14/14 
f 9/9/9 14/14/14 10/10/10 
f 10/10/10 14/14/14 15/15/15 
f 1/1/1 3/3/3 16/16/16 
f 3/3/3 6/6/6 17/17/17 
f 3/3/3 17/17/17 16/16/16 
f 16/16/16 17/17/17 18/18/18 
f 6/6/6 10/10/10 19/19/19 
f 6/6/6 19/19/19 17/17/17 
f 17/17/17 19/19/19 20/20/20 
f 17/17/17 20/20/20 18/18/18 
f 18/18/18 20/20/20 21/21/21 
f 10/10/10 15/15/15 22/22/22 
f 10/10/10 22/22/22 19/19/19 
f 19/19/19 22/22/22 23/23/23 
f 19/19/19 23/23/23 20/20/20 
f 20/20/20 23/23/23 24/24/24 
f 20/20/20 24/24/24 21/21/21 
f 21/21/21 24/24/24 25/25/25 
f 1/1/1 16/16/16 26/26/26 
f 16/16/16 18/18/18 27/27/27 
f 16/16/16 27/27/27 26/26/26 
f 26/26/26 27/27/27 28/28/28 
f 18/18/18 21/21/21 29/29/29 
f 18/18/18 29/29/29 27/27/27 
f 27/27/27 29/29/29 30/30/30 
f 27/27/27 30/30/30 28/28/28 
f 28/28/28 30/30/30 31/31/31 
f 21/21/21 25/25/25 32/32/32 
f 21/21/21 32/32/32 29/29/29 
f 29/29/29 32/32/32 33/33/33 
f 29/29/29 33/33/33 30/30/30 
f 30/30/30 33/33/33 34/34/34 
f 30/30/30 34/34/34 31/31/31 
f 31/31/31 34/34/34 35/35/35 
f 1/1/1 26/26/26 36/36/36 
f 26/26/26 28/28/28 37/37/37 
f 26/26/26 37/37/37 36/36/36 
f 36/36/36 37/37/37 38/38/38 
f 28/28/28 31/31/31 39/39/39 
f 28/28/28 39/39/39 37/37/37 
f 37/37/37 39/39/39 40/40/40 
f 37/37/37 40/40/40 38/38/38 
f 38/38/38 40/40/40 41/41/41 
f 31/31/31 35/35/35 42/42/42 
f 31/31/31 42/42/42 39/39/39 
f 39/39/39 42/42/42 43/43/43 
f 39/39/39 43/43/43 40/40/40 
f 40/40/40 43/43/43 44/44/44 
f 40/40/40 44/44/44 41/41/41 
f 41/41/41 44/44/44 45/45/45 
f 1/1/1 36/36/36 2/2/2 
f 36/36/36 38/38/38 46/46/46 
f 36/36/36 46/46/46 2/2/2 
f 2/2/2 46/46/46 4/4/4 
f 38/38/38 41/41/41 47/47/47 
f 38/38/38 47/47/47 46/46/46 
f 46/46/46 47/47/47 48/48/48 
f 46/46/46 48/48/48 4/4/4 
f 4/4/4 48/48/48 7/7/7 
f 41/41/41 45/45/45 49/49/49 
f 41/41/41 49/49/49 47/47/47 
f 47/47/47 49/49/49 50/50/50 
f 47/47/47 50/50/50 48/48/48 
f 48/48/48 50/50/50 51/51/51 
f 48/48/48 51/51/51 7/7/7 
f 7/7/7 51/51/51 11/11/11 
f 11/11/11 52/52/52 53/53/53 
f 52/52/52 54/54/54 55/55/55 
f 52/52/52 55/55/55 53/53/53 
f 53/53/53 55/55/55 56/56/56 
f 55/55/55 57/57/57 56/56/56 
f 15/15/15 58/58/58 59/59/59 
f 58/58/58 60/60/60 61/61/61 
f 58/58/58 61/61/61 62/62/62 59/59/59 
f 25/25/25 63/63/63 64/64/64 
f 63/63/63 65/65/65 66/66/66 
f 63/63/63 66/66/66 64/64/64 
f 64/64/64 66/66/66 67/67/67 
f 35/35/35 68/68/68 69/69/69 
f 68/68/68 70/70/70 71/71/71 
f 68/68/68 71/71/71 69/69/69 
f 69/69/69 71/71/71 72/72/72 
f 70/70/70 73/73/73 74/74/74 71/71/71 
f 71/71/71 74/74/74 75/75/75 
f 71/71/71 75/75/75 72/72/72 
f 45/45/45 76/76/76 77/77/77 
f 76/76/76 78/78/78 79/79/79 
f 76/76/76 79/79/79 77/77/77 
f 77/77/77 79/79/79 80/80/80 
f 58/58/58 15/15/15 14/14/14 
f 58/58/58 14/14/14 81/81/81 
f 81/81/81 14/14/14 13/13/13 
f 81/81/81 13/13/13 82/82/82 
f 82/82/82 13/13/13 12/12/12 
f 82/82/82 12/12/12 53/53/53 
f 53/53/53 12/12/12 11/11/11 
f 83/83/83 84/84/84 85/85/85 
f 83/83/83 85/85/85 59/59/59 
f 63/63/63 25/25/25 24/24/24 
f 63/63/63 24/24/24 84/84/84 
f 84/84/84 24/24/24 23/23/23 
f 84/84/84 23/23/23 85/85/85 
f 85/85/85 23/23/23 22/22/22 
f 85/85/85 22/22/22 59/59/59 
f 59/59/59 22/22/22 15/15/15 
f 70/70/70 68/68/68 86/86/86 
f 70/70/70 86/86/86 87/87/87 
f 87/87/87 86/86/86 88/88/88 
f 87/87/87 88/88/88 67/67/67 
f 67/67/67 88/88/88 64/64/64 
f 68/68/68 35/35/35 34/34/34 
f 68/68/68 34/34/34 86/86/86 
f 86/86/86 34/34/34 33/33/33 
f 86/86/86 33/33/33 88/88/88 
f 88/88/88 33/33/33 32/32/32 
f 88/88/88 32/32/32 64/64/64 
f 64/64/64 32/32/32 25/25/25 
f 89/89/89 90/90/90 91/91/91 
f 89/89/89 91/91/91 72/72/72 
f 72/72/72 91/91/91 69/69/69 
f 76/76/76 45/45/45 44/44/44 
f 76/76/76 44/44/44 90/90/90 
f 90/90/90 44/44/44 43/43/43 
f 90/90/90 43/43/43 91/91/91 
f 91/91/91 43/43/43 42/42/42 
f 91/91/91 42/42/42 69/69/69 
f 69/69/69 42/42/42 35/35/35 
f 80/80/80 92/92/92 77/77/77 
f 52/52/52 11/11/11 51/51/51 
f 52/52/52 51/51/51 93/93/93 
f 93/93/93 51/51/51 50/50/50 
f 93/93/93 50/50/50 92/92/92 
f 92/92/92 50/50/50 49/49/49 
f 92/92/92 49/49/49 77/77/77 
f 77/77/77 49/49/49 45/45/45 
f 57/57/57 55/55/55 54/54/54 
f 58/58/58 81/81/81 60/60/60 
f 60/60/60 81/81/81 94/94/94 
f 81/81/81 82/82/82 94/94/94 
f 94/94/94 82/82/82 56/56/56 
f 82/82/82 53/53/53 56/56/56 
f 83/83/83 59/59/59 62/62/62 
f 63/63/63 84/84/84 65/65/65 
f 65/65/65 84/84/84 83/83/83 
f 73/73/73 70/70/70 87/87/87 95/95/95 
f 95/95/95 87/87/87 67/67/67 
f 76/76/76 90/90/90 78/78/78 
f 78/78/78 90/90/90 89/89/89 
f 52/52/52 93/93/93 54/54/54 
f 54/54/54 93/93/93 96/96/96 
f 93/93/93 92/92/92 96/96/96 
f 96/96/96 92/92/92 80/80/80 
# 3 polygons - 163 triangles

