# 3ds Max Wavefront OBJ Exporter v0.97b - (c)2007 guruware
# File Created: 27.07.2016 16:42:08

mtllib Stone1_1.mtl

#
# object Stone1_1
#

v  2.7340 29.4015 0.7025
v  9.6614 29.3823 1.2214
v  4.3466 26.7944 -5.2991
v  15.6463 24.5155 -2.7763
v  11.3551 24.4917 -7.0708
v  10.3152 20.7303 -10.8161
v  20.1975 18.6795 0.9985
v  17.0017 20.3013 -8.4654
v  16.1935 18.1398 -13.5253
v  9.0484 15.9289 -15.0199
v  24.8893 12.8250 3.3407
v  21.7419 14.3283 -3.8718
v  19.1908 13.0830 -11.0899
v  14.4121 15.0733 -15.9959
v  7.8501 11.6475 -19.5684
v  -4.5076 26.8338 -4.2536
v  1.0505 23.3925 -10.6940
v  -9.5319 22.9856 -5.6153
v  2.7500 18.7091 -15.7615
v  -4.6409 19.0442 -13.0260
v  -14.3534 17.5687 -10.1425
v  0.1625 13.1378 -20.1589
v  -6.7949 14.1728 -19.7106
v  -13.1147 12.6905 -16.6453
v  -19.3512 12.8872 -12.7195
v  -2.6962 27.4699 4.4711
v  -10.5384 26.2704 2.7332
v  -9.9595 23.5450 11.1698
v  -18.0292 18.8284 -2.9465
v  -16.2377 20.3234 5.1493
v  -15.6133 17.7723 13.4255
v  -22.8282 12.8071 -7.4924
v  -22.9996 12.8529 -0.6161
v  -20.9910 13.5631 7.3508
v  -18.3843 11.0683 15.8371
v  5.4208 25.7180 8.8177
v  -2.9604 21.2878 12.4088
v  5.0433 20.0204 16.3429
v  -7.9328 17.6135 18.3317
v  0.8600 14.8668 20.5996
v  9.3276 15.3733 23.1138
v  -11.6739 12.7326 21.0395
v  -3.5004 13.1128 24.2335
v  4.1430 9.5631 26.6995
v  10.6000 11.4509 26.6372
v  12.2347 24.3561 7.2075
v  12.8259 18.5335 13.9506
v  18.2681 18.2963 5.9113
v  15.9435 13.4838 22.1378
v  19.8733 14.4183 16.0691
v  23.5547 12.7537 10.2450
v  28.0524 6.5449 5.7542
v  29.3094 6.8464 -2.9705
v  29.7663 0.0000 9.8678
v  31.1942 0.0000 0.8595
v  30.3068 0.0000 -8.0185
v  14.9620 9.4749 -22.4559
v  5.9117 5.8256 -25.9082
v  18.3628 4.0288 -21.4532
v  10.6589 0.0000 -27.2863
v  1.8472 0.0000 -27.5320
v  18.5282 0.0000 -18.8179
v  15.8187 0.0000 -21.4801
v  -15.8092 7.1605 -15.8345
v  -21.1535 7.4658 -9.8276
v  -13.0722 0.0000 -20.9474
v  -19.0544 2.1830 -13.0010
v  -20.6818 0.7121 -6.1782
v  -18.8972 0.0000 -14.1556
v  -19.8300 0.0000 -12.2482
v  -20.9980 0.0000 -5.8172
v  -21.5760 6.0616 13.7404
v  -18.0989 4.9543 21.8502
v  -21.4199 0.0978 10.6070
v  -19.3449 0.0000 19.5527
v  -15.5330 0.0000 23.1000
v  6.3517 4.6567 26.3422
v  13.5800 7.2248 24.4024
v  0.5047 0.0000 26.7024
v  9.2478 0.0000 24.4543
v  16.8483 0.0000 22.4504
v  21.0677 8.0889 -17.5527
v  23.2099 0.0000 -16.6061
v  25.4947 5.2844 -11.1067
v  -6.0423 0.0000 -26.6114
v  -9.3058 5.5954 -21.8994
v  -2.2869 8.1420 -24.3227
v  -24.1076 6.2859 4.9603
v  -23.0336 0.0000 2.3153
v  -23.0461 6.8534 -3.1355
v  -7.5369 0.0000 24.7139
v  -1.6485 5.1901 27.5320
v  -10.3833 7.7379 24.9518
v  25.2534 8.5553 12.8455
v  23.2316 0.0000 18.4519
v  19.0443 7.8361 19.4986
# 96 vertices

vn -0.0823 0.9966 -0.0003
vn 0.3207 0.9455 0.0566
vn 0.0618 0.8587 -0.5087
vn 0.6593 0.7393 -0.1371
vn 0.2395 0.7904 -0.5638
vn 0.0889 0.7002 -0.7084
vn 0.7586 0.6500 0.0457
vn 0.7088 0.6131 -0.3490
vn 0.5131 0.5464 -0.6619
vn 0.1351 0.6482 -0.7494
vn 0.8011 0.5975 0.0361
vn 0.7786 0.5610 -0.2811
vn 0.7718 0.5136 -0.3750
vn 0.3048 0.6538 -0.6925
vn 0.0766 0.7228 -0.6868
vn -0.2797 0.8757 -0.3935
vn -0.0536 0.7730 -0.6322
vn -0.4229 0.7651 -0.4856
vn 0.1137 0.6666 -0.7366
vn -0.2715 0.7610 -0.5892
vn -0.4151 0.7554 -0.5070
vn 0.1068 0.6281 -0.7707
vn -0.2887 0.6286 -0.7222
vn -0.4806 0.4920 -0.7259
vn -0.6631 0.3934 -0.6368
vn -0.1442 0.9399 0.3094
vn -0.4549 0.8904 0.0176
vn -0.2783 0.8191 0.5016
vn -0.6568 0.7311 -0.1848
vn -0.7166 0.6778 0.1648
vn -0.6288 0.6158 0.4747
vn -0.8891 0.3380 -0.3087
vn -0.9238 0.3817 0.0285
vn -0.8463 0.4684 0.2535
vn -0.7465 0.4545 0.4859
vn 0.0664 0.8283 0.5563
vn -0.0032 0.7882 0.6155
vn 0.0090 0.7969 0.6041
vn -0.1539 0.7429 0.6515
vn -0.0476 0.7712 0.6348
vn 0.0599 0.7756 0.6283
vn -0.4423 0.5631 0.6980
vn -0.0736 0.6355 0.7686
vn -0.0311 0.3395 0.9401
vn 0.2395 0.2921 0.9259
vn 0.5289 0.7181 0.4523
vn 0.4067 0.8014 0.4386
vn 0.6174 0.7284 0.2969
vn 0.5812 0.4991 0.6427
vn 0.6420 0.6261 0.4425
vn 0.7595 0.6082 0.2308
vn 0.8924 0.4154 0.1762
vn 0.8606 0.4825 -0.1631
vn 0.8875 0.3123 0.3389
vn 0.9527 0.2971 0.0635
vn 0.8548 0.3439 -0.3886
vn 0.3490 0.5490 -0.7594
vn 0.0518 0.4725 -0.8798
vn 0.6510 -0.0372 -0.7582
vn 0.3030 0.1970 -0.9324
vn -0.0605 0.2993 -0.9522
vn 0.4807 -0.4661 -0.7427
vn 0.6642 -0.4153 -0.6216
vn -0.6818 0.1359 -0.7188
vn -0.8827 -0.1117 -0.4564
vn -0.6570 0.2551 -0.7094
vn -0.8651 0.1187 -0.4874
vn -0.9691 0.0596 -0.2394
vn -0.7922 0.2398 -0.5612
vn -0.9328 0.2414 -0.2675
vn -0.9286 0.3055 -0.2108
vn -0.9351 0.1309 0.3292
vn -0.6908 0.1924 0.6970
vn -0.9564 -0.1776 0.2320
vn -0.8708 -0.0771 0.4855
vn -0.4368 -0.0771 0.8963
vn 0.2075 -0.1436 0.9676
vn 0.5037 -0.0649 0.8614
vn 0.0203 -0.1884 0.9819
vn 0.2719 -0.1849 0.9444
vn 0.4805 0.0398 0.8761
vn 0.7391 0.4332 -0.5159
vn 0.7496 0.0664 -0.6586
vn 0.7669 0.4410 -0.4663
vn -0.3578 0.3487 -0.8662
vn -0.5303 0.3216 -0.7845
vn -0.1623 0.4754 -0.8647
vn -0.9926 0.0361 0.1163
vn -0.9815 -0.1832 -0.0560
vn -0.9758 -0.1056 -0.1914
vn -0.2528 -0.1519 0.9555
vn -0.1123 0.0335 0.9931
vn -0.3364 0.2422 0.9101
vn 0.8110 0.3735 0.4503
vn 0.6664 0.2173 0.7132
vn 0.6851 0.1741 0.7073
# 96 vertex normals

vt 0.2578 0.7489 0.0000
vt 0.2600 0.7162 0.0000
vt 0.2947 0.7503 0.0000
vt 0.2947 0.6859 0.0000
vt 0.3147 0.7135 0.0000
vt 0.3446 0.7144 0.0000
vt 0.2766 0.6412 0.0000
vt 0.3332 0.6765 0.0000
vt 0.3652 0.6806 0.0000
vt 0.3795 0.7276 0.0000
vt 0.2686 0.5943 0.0000
vt 0.3158 0.6242 0.0000
vt 0.3656 0.6439 0.0000
vt 0.3842 0.6915 0.0000
vt 0.4135 0.7410 0.0000
vt 0.2796 0.7973 0.0000
vt 0.3267 0.7697 0.0000
vt 0.2823 0.8280 0.0000
vt 0.3658 0.7684 0.0000
vt 0.3396 0.8107 0.0000
vt 0.3069 0.8663 0.0000
vt 0.4023 0.7946 0.0000
vt 0.3819 0.8388 0.0000
vt 0.3560 0.8798 0.0000
vt 0.3155 0.9066 0.0000
vt 0.2322 0.7704 0.0000
vt 0.2308 0.8131 0.0000
vt 0.1820 0.8077 0.0000
vt 0.2560 0.8791 0.0000
vt 0.2101 0.8550 0.0000
vt 0.1574 0.8470 0.0000
vt 0.2798 0.9222 0.0000
vt 0.2355 0.9215 0.0000
vt 0.1853 0.8984 0.0000
vt 0.1256 0.8777 0.0000
vt 0.2085 0.7215 0.0000
vt 0.1716 0.7682 0.0000
vt 0.1560 0.7153 0.0000
vt 0.1284 0.7956 0.0000
vt 0.1126 0.7359 0.0000
vt 0.1188 0.6795 0.0000
vt 0.0997 0.8218 0.0000
vt 0.0881 0.7619 0.0000
vt 0.0692 0.7047 0.0000
vt 0.0948 0.6667 0.0000
vt 0.2298 0.6874 0.0000
vt 0.1843 0.6692 0.0000
vt 0.2424 0.6405 0.0000
vt 0.1322 0.6382 0.0000
vt 0.1760 0.6183 0.0000
vt 0.2185 0.5932 0.0000
vt 0.2550 0.5480 0.0000
vt 0.3217 0.5572 0.0000
vt 0.2208 0.5042 0.0000
vt 0.3004 0.5059 0.0000
vt 0.3757 0.5309 0.0000
vt 0.4361 0.6946 0.0000
vt 0.4661 0.7641 0.0000
vt 0.4573 0.6572 0.0000
vt 0.5046 0.7233 0.0000
vt 0.4997 0.8039 0.0000
vt 0.4754 0.6308 0.0000
vt 0.4889 0.6611 0.0000
vt 0.3589 0.9200 0.0000
vt 0.3045 0.9447 0.0000
vt 0.4165 0.9355 0.0000
vt 0.3410 0.9653 0.0000
vt 0.2856 0.9912 0.0000
vt 0.3558 0.9742 0.0000
vt 0.3356 0.9824 0.0000
vt 0.2839 0.9947 0.0000
vt 0.1258 0.9205 0.0000
vt 0.0702 0.8794 0.0000
vt 0.1324 0.9700 0.0000
vt 0.0635 0.9191 0.0000
vt 0.0296 0.8712 0.0000
vt 0.0464 0.6794 0.0000
vt 0.0883 0.6330 0.0000
vt 0.0068 0.7178 0.0000
vt 0.0305 0.6398 0.0000
vt 0.0753 0.5786 0.0000
vt 0.4175 0.6396 0.0000
vt 0.4459 0.5943 0.0000
vt 0.3862 0.5848 0.0000
vt 0.4733 0.8753 0.0000
vt 0.4176 0.8843 0.0000
vt 0.4362 0.8241 0.0000
vt 0.1903 0.9506 0.0000
vt 0.2125 0.9957 0.0000
vt 0.2525 0.9560 0.0000
vt 0.0063 0.7954 0.0000
vt 0.0375 0.7428 0.0000
vt 0.0599 0.8122 0.0000
vt 0.1974 0.5682 0.0000
vt 0.1331 0.5344 0.0000
vt 0.1332 0.5954 0.0000
# 96 texture coords

g Stone1_1
usemtl wire_177148027
s 1
f 1/1/1 2/2/2 3/3/3 
f 2/2/2 4/4/4 5/5/5 
f 2/2/2 5/5/5 3/3/3 
f 3/3/3 5/5/5 6/6/6 
f 4/4/4 7/7/7 8/8/8 
f 4/4/4 8/8/8 5/5/5 
f 5/5/5 8/8/8 9/9/9 
f 5/5/5 9/9/9 6/6/6 
f 6/6/6 9/9/9 10/10/10 
f 7/7/7 11/11/11 12/12/12 
f 7/7/7 12/12/12 8/8/8 
f 8/8/8 12/12/12 13/13/13 
f 8/8/8 13/13/13 9/9/9 
f 9/9/9 13/13/13 14/14/14 
f 9/9/9 14/14/14 10/10/10 
f 10/10/10 14/14/14 15/15/15 
f 1/1/1 3/3/3 16/16/16 
f 3/3/3 6/6/6 17/17/17 
f 3/3/3 17/17/17 16/16/16 
f 16/16/16 17/17/17 18/18/18 
f 6/6/6 10/10/10 19/19/19 
f 6/6/6 19/19/19 17/17/17 
f 17/17/17 19/19/19 20/20/20 
f 17/17/17 20/20/20 18/18/18 
f 18/18/18 20/20/20 21/21/21 
f 10/10/10 15/15/15 22/22/22 
f 10/10/10 22/22/22 19/19/19 
f 19/19/19 22/22/22 23/23/23 
f 19/19/19 23/23/23 20/20/20 
f 20/20/20 23/23/23 24/24/24 
f 20/20/20 24/24/24 21/21/21 
f 21/21/21 24/24/24 25/25/25 
f 1/1/1 16/16/16 26/26/26 
f 16/16/16 18/18/18 27/27/27 
f 16/16/16 27/27/27 26/26/26 
f 26/26/26 27/27/27 28/28/28 
f 18/18/18 21/21/21 29/29/29 
f 18/18/18 29/29/29 27/27/27 
f 27/27/27 29/29/29 30/30/30 
f 27/27/27 30/30/30 28/28/28 
f 28/28/28 30/30/30 31/31/31 
f 21/21/21 25/25/25 32/32/32 
f 21/21/21 32/32/32 29/29/29 
f 29/29/29 32/32/32 33/33/33 
f 29/29/29 33/33/33 30/30/30 
f 30/30/30 33/33/33 34/34/34 
f 30/30/30 34/34/34 31/31/31 
f 31/31/31 34/34/34 35/35/35 
f 1/1/1 26/26/26 36/36/36 
f 26/26/26 28/28/28 37/37/37 
f 26/26/26 37/37/37 36/36/36 
f 36/36/36 37/37/37 38/38/38 
f 28/28/28 31/31/31 39/39/39 
f 28/28/28 39/39/39 37/37/37 
f 37/37/37 39/39/39 40/40/40 
f 37/37/37 40/40/40 38/38/38 
f 38/38/38 40/40/40 41/41/41 
f 31/31/31 35/35/35 42/42/42 
f 31/31/31 42/42/42 39/39/39 
f 39/39/39 42/42/42 43/43/43 
f 39/39/39 43/43/43 40/40/40 
f 40/40/40 43/43/43 44/44/44 
f 40/40/40 44/44/44 41/41/41 
f 41/41/41 44/44/44 45/45/45 
f 1/1/1 36/36/36 2/2/2 
f 36/36/36 38/38/38 46/46/46 
f 36/36/36 46/46/46 2/2/2 
f 2/2/2 46/46/46 4/4/4 
f 38/38/38 41/41/41 47/47/47 
f 38/38/38 47/47/47 46/46/46 
f 46/46/46 47/47/47 48/48/48 
f 46/46/46 48/48/48 4/4/4 
f 4/4/4 48/48/48 7/7/7 
f 41/41/41 45/45/45 49/49/49 
f 41/41/41 49/49/49 47/47/47 
f 47/47/47 49/49/49 50/50/50 
f 47/47/47 50/50/50 48/48/48 
f 48/48/48 50/50/50 51/51/51 
f 48/48/48 51/51/51 7/7/7 
f 7/7/7 51/51/51 11/11/11 
f 11/11/11 52/52/52 53/53/53 
f 52/52/52 54/54/54 55/55/55 
f 52/52/52 55/55/55 53/53/53 
f 53/53/53 55/55/55 56/56/56 
f 15/15/15 57/57/57 58/58/58 
f 57/57/57 59/59/59 60/60/60 
f 57/57/57 60/60/60 58/58/58 
f 58/58/58 60/60/60 61/61/61 
f 59/59/59 62/62/62 63/63/63 
f 59/59/59 63/63/63 60/60/60 
f 25/25/25 64/64/64 65/65/65 
f 64/64/64 66/66/66 67/67/67 
f 64/64/64 67/67/67 65/65/65 
f 65/65/65 67/67/67 68/68/68 
f 67/67/67 69/69/69 70/70/70 
f 67/67/67 70/70/70 71/71/71 68/68/68 
f 35/35/35 72/72/72 73/73/73 
f 72/72/72 74/74/74 75/75/75 
f 72/72/72 75/75/75 73/73/73 
f 73/73/73 75/75/75 76/76/76 
f 45/45/45 77/77/77 78/78/78 
f 77/77/77 79/79/79 80/80/80 
f 77/77/77 80/80/80 78/78/78 
f 78/78/78 80/80/80 81/81/81 
f 59/59/59 57/57/57 82/82/82 
f 59/59/59 82/82/82 83/83/83 
f 57/57/57 15/15/15 14/14/14 
f 57/57/57 14/14/14 82/82/82 
f 82/82/82 14/14/14 13/13/13 
f 82/82/82 13/13/13 84/84/84 
f 84/84/84 13/13/13 12/12/12 
f 84/84/84 12/12/12 53/53/53 
f 53/53/53 12/12/12 11/11/11 
f 85/85/85 86/86/86 87/87/87 
f 85/85/85 87/87/87 61/61/61 
f 61/61/61 87/87/87 58/58/58 
f 64/64/64 25/25/25 24/24/24 
f 64/64/64 24/24/24 86/86/86 
f 86/86/86 24/24/24 23/23/23 
f 86/86/86 23/23/23 87/87/87 
f 87/87/87 23/23/23 22/22/22 
f 87/87/87 22/22/22 58/58/58 
f 58/58/58 22/22/22 15/15/15 
f 74/74/74 72/72/72 88/88/88 
f 88/88/88 89/89/89 74/74/74 
f 68/68/68 90/90/90 65/65/65 
f 72/72/72 35/35/35 34/34/34 
f 72/72/72 34/34/34 88/88/88 
f 88/88/88 34/34/34 33/33/33 
f 88/88/88 33/33/33 90/90/90 
f 90/90/90 33/33/33 32/32/32 
f 90/90/90 32/32/32 65/65/65 
f 65/65/65 32/32/32 25/25/25 
f 91/91/91 92/92/92 93/93/93 
f 91/91/91 93/93/93 76/76/76 
f 77/77/77 45/45/45 44/44/44 
f 77/77/77 44/44/44 92/92/92 
f 92/92/92 44/44/44 43/43/43 
f 92/92/92 43/43/43 93/93/93 
f 93/93/93 43/43/43 42/42/42 
f 93/93/93 42/42/42 73/73/73 
f 73/73/73 42/42/42 35/35/35 
f 54/54/54 52/52/52 94/94/94 
f 54/54/54 94/94/94 95/95/95 
f 95/95/95 94/94/94 96/96/96 
f 95/95/95 96/96/96 81/81/81 
f 81/81/81 96/96/96 78/78/78 
f 52/52/52 11/11/11 51/51/51 
f 52/52/52 51/51/51 94/94/94 
f 94/94/94 51/51/51 50/50/50 
f 94/94/94 50/50/50 96/96/96 
f 96/96/96 50/50/50 49/49/49 
f 96/96/96 49/49/49 78/78/78 
f 78/78/78 49/49/49 45/45/45 
f 69/69/69 67/67/67 66/66/66 
f 62/62/62 59/59/59 83/83/83 
f 82/82/82 84/84/84 83/83/83 
f 83/83/83 84/84/84 56/56/56 
f 84/84/84 53/53/53 56/56/56 
f 64/64/64 86/86/86 66/66/66 
f 66/66/66 86/86/86 85/85/85 
f 88/88/88 90/90/90 89/89/89 
f 89/89/89 68/68/68 71/71/71 
f 77/77/77 92/92/92 79/79/79 
f 79/79/79 92/92/92 91/91/91 
f 93/93/93 73/73/73 76/76/76 
f 89/89/89 90/90/90 68/68/68 
# 1 polygons - 166 triangles

